<svg width="24" height="24" viewBox="0 0 24 24" fill="none" xmlns="http://www.w3.org/2000/svg">
  <path d="M15.7071 2.29289C16.0976 2.68342 16.0976 3.31658 15.7071 3.70711L14 5.414L18.586 10L20.2929 8.29289C20.6834 7.90237 21.3166 7.90237 21.7071 8.29289C22.0976 8.68342 22.0976 9.31658 21.7071 9.70711L20 11.414L21.2929 12.7071C21.6834 13.0976 21.6834 13.7308 21.2929 14.1213L14.1213 21.2929C13.7308 21.6834 13.0976 21.6834 12.7071 21.2929L11.414 20L9.70711 21.7071C9.31658 22.0976 8.68342 22.0976 8.29289 21.7071C7.90237 21.3166 7.90237 20.6834 8.29289 20.2929L10 18.586L5.414 14L3.70711 15.7071C3.31658 16.0976 2.68342 16.0976 2.29289 15.7071C1.90237 15.3166 1.90237 14.6834 2.29289 14.2929L4 12.586L2.70711 11.2929C2.31658 10.9024 2.31658 10.2692 2.70711 9.87868L9.87868 2.70711C10.2692 2.31658 10.9024 2.31658 11.2929 2.70711L12.586 4L14.2929 2.29289C14.6834 1.90237 15.3166 1.90237 15.7071 2.29289Z" fill="currentColor"/>
</svg> 