<svg width="96" height="96" viewBox="0 0 96 96" fill="none" xmlns="http://www.w3.org/2000/svg">
  <defs>
    <linearGradient id="dliveGradient" x1="16" y1="12" x2="80" y2="84" gradientUnits="userSpaceOnUse">
      <stop offset="0" stop-color="#F9C400" />
      <stop offset="1" stop-color="#F6A700" />
    </linearGradient>
  </defs>
  <rect x="8" y="8" width="80" height="80" rx="24" fill="url(#dliveGradient)"/>
  <path
    d="M36 28C32.6863 28 30 30.6863 30 34V62C30 65.3137 32.6863 68 36 68H48C58.4934 68 67 59.4934 67 49C67 38.5066 58.4934 30 48 30H36ZM44 38H48C53.5228 38 58 42.4772 58 48C58 53.5228 53.5228 58 48 58H44V38Z"
    fill="white"
    opacity="0.95"
  />
  <circle cx="68" cy="40" r="8" fill="white" opacity="0.85" />
</svg>
